HIERARCHY
ROOT Hips
{
	OFFSET -3.958830 18.904000 13.208200
	CHANNELS 6 Xposition Yposition Zposition Zrotation Yrotation Xrotation 
	JOINT LHipJoint
	{
		OFFSET 0.000000 0.000000 0.000000
		CHANNELS 3 Zrotation Yrotation Xrotation
		JOINT LeftUpLeg
		{
			OFFSET 1.800000 -1.400000 0.085000
			CHANNELS 3 Zrotation Yrotation Xrotation
			JOINT LeftLeg
			{
				OFFSET 2.215000 -6.000000 0.000000
				CHANNELS 3 Zrotation Yrotation Xrotation
				JOINT LeftFoot
				{
					OFFSET 2.500000 -6.900000 0.000000
					CHANNELS 3 Zrotation Yrotation Xrotation
					JOINT LeftToeBase
					{
						OFFSET 0.200000 -0.500000 1.950000
						CHANNELS 3 Zrotation Yrotation Xrotation
						End Site
						{
							OFFSET 0.000000 0.000000 0.000000
						}
					}
				}
			}
		}
	}
	JOINT RHipJoint
	{
		OFFSET 0.000000 0.000000 0.000000
		CHANNELS 3 Zrotation Yrotation Xrotation
		JOINT RightUpLeg
		{
			OFFSET -1.800000 -1.400000 0.085000
			CHANNELS 3 Zrotation Yrotation Xrotation
			JOINT RightLeg
			{
				OFFSET -2.215000 -6.000000 0.000000
				CHANNELS 3 Zrotation Yrotation Xrotation
				JOINT RightFoot
				{
					OFFSET -2.500000 -6.900000 0.000000
					CHANNELS 3 Zrotation Yrotation Xrotation
					JOINT RightToeBase
					{
						OFFSET -0.200000 -0.500000 1.950000
						CHANNELS 3 Zrotation Yrotation Xrotation
						End Site
						{
							OFFSET 0.000000 0.000000 0.000000
						}
					}
				}
			}
		}
	}
	JOINT LowerBack
	{
		OFFSET 0.000000 0.000000 0.000000
		CHANNELS 3 Zrotation Yrotation Xrotation
		JOINT Spine
		{
			OFFSET -0.087000 1.940000 -0.288900
			CHANNELS 3 Zrotation Yrotation Xrotation
			JOINT Spine1
			{
				OFFSET 0.000000 1.950000 0.060000
				CHANNELS 3 Zrotation Yrotation Xrotation
				JOINT Neck
				{
					OFFSET 0.000000 0.000000 0.000000
					CHANNELS 3 Zrotation Yrotation Xrotation
					JOINT Neck1
					{
						OFFSET 0.000000 1.600000 0.340000
						CHANNELS 3 Zrotation Yrotation Xrotation
						JOINT Head
						{
							OFFSET 0.000000 1.667000 -0.240000
							CHANNELS 3 Zrotation Yrotation Xrotation
							End Site
							{
								OFFSET 0.000000 0.000000 0.000000
							}
						}
					}
				}
				JOINT LeftShoulder
				{
					OFFSET 0.000000 0.000000 0.000000
					CHANNELS 3 Zrotation Yrotation Xrotation
					JOINT LeftArm
					{
						OFFSET 2.700000 1.550000 -0.730000
						CHANNELS 3 Zrotation Yrotation Xrotation
						JOINT LeftForeArm
						{
							OFFSET 5.450000 0.000000 0.000000
							CHANNELS 3 Zrotation Yrotation Xrotation
							JOINT LeftHand
							{
								OFFSET 3.450000 0.000000 0.000000
								CHANNELS 3 Zrotation Yrotation Xrotation
								JOINT LeftHandIndex1
								{
									OFFSET 0.750000 0.000000 0.000000
									CHANNELS 3 Zrotation Yrotation Xrotation
									End Site
									{
										OFFSET 0.000000 0.000000 0.000000
									}
								}
							}
						}
					}
				}
				JOINT RightShoulder
				{
					OFFSET 0.000000 0.000000 0.000000
					CHANNELS 3 Zrotation Yrotation Xrotation
					JOINT RightArm
					{
						OFFSET -2.700000 1.550000 -0.730000
						CHANNELS 3 Zrotation Yrotation Xrotation
						JOINT RightForeArm
						{
							OFFSET -5.450000 0.000000 0.000000
							CHANNELS 3 Zrotation Yrotation Xrotation
							JOINT RightHand
							{
								OFFSET -3.450000 0.000000 0.000000
								CHANNELS 3 Zrotation Yrotation Xrotation
								JOINT RightHandIndex1
								{
									OFFSET -0.750000 0.000000 0.000000
									CHANNELS 3 Zrotation Yrotation Xrotation
									End Site
									{
										OFFSET 0.000000 0.000000 0.000000
									}
								}
							}
						}
					}
				}
			}
		}
	}
}
MOTION
Frames: 8
Frame Time: 0.016667
-1.038640 17.888360 -5.024960 -5.911664 2.178498 1.374413 -15.182048 13.269647 2.363337 1.903516 -3.644279 -10.823655 0.599451 7.678642 41.559030 0.152369 7.392929 2.157030 0.724270 0.276960 0.697200 18.503149 -8.968330 4.772682 3.568045 11.492330 -44.638664 0.901284 -10.408403 58.725664 -1.383191 -8.549975 1.558720 0.149050 0.085920 0.234380 -3.895571 -3.503900 -8.182403 16.672596 -10.888097 28.466784 -6.179433 -6.943108 4.664030 3.109946 -6.905140 -9.231217 -13.682585 6.807442 27.351642 -6.506200 6.631540 -14.856140 -19.467336 -3.637502 2.501929 -37.575781 -3.873954 -5.720290 -133.033838 -71.259828 106.048450 -3.555918 3.050419 0.630420 0.049980 0.041700 0.258720 13.436603 5.881246 5.866506 40.639285 -1.943873 -9.163549 97.221762 65.733195 54.728048 2.474635 -1.557079 -0.148990 0.132200 -0.295390 -0.318070 
-1.017640 17.666950 -5.028780 -5.834374 1.911462 0.401051 -15.155696 13.174719 2.451353 1.529110 -4.084783 -8.552802 0.380989 8.589986 46.172177 0.325134 8.404401 1.817228 0.715570 0.271160 0.695290 18.538197 -9.049435 4.634871 4.438546 10.807106 -44.520136 1.118759 -9.094737 52.206735 -1.086290 -7.267508 1.929357 0.168730 0.101570 0.255840 -3.990390 -3.254289 -8.101665 17.317248 -11.804864 28.128941 -7.204435 -7.815538 7.637009 3.125450 -6.693095 -9.643729 -13.200765 7.381262 27.111255 -7.838630 7.813950 -15.795830 -17.144696 -3.922209 3.399537 -31.432110 -1.939065 -4.311207 -160.865318 -63.964989 136.533380 -3.560401 3.381144 0.648540 0.079330 0.039210 0.243420 11.200433 5.591532 5.961940 36.062160 -3.824783 -10.271148 126.428571 61.491797 81.434262 2.098500 -1.704089 -0.175100 0.144750 -0.260670 -0.339600 
-1.002520 17.419260 -5.036300 -4.989372 2.168943 -0.253851 -15.171635 13.160660 2.510759 0.079596 -4.125433 -5.948874 1.314681 8.428567 48.356161 0.414597 8.819359 1.681945 0.717240 0.279380 0.715750 18.531676 -9.072870 4.548638 3.816143 10.073176 -45.264323 1.987865 -8.735503 48.254014 -0.920449 -6.555422 2.116704 0.187260 0.095850 0.273310 -3.970280 -3.232494 -8.039702 16.453181 -12.060889 27.351287 -7.281014 -8.447638 10.715633 2.940397 -6.198210 -10.107557 -12.319924 7.401606 27.114237 -8.786130 8.856360 -17.270590 -15.179816 -4.035564 4.141946 -24.672455 -0.758869 -1.764353 179.998639 -52.104849 164.080703 -3.671028 3.453690 0.655080 0.090960 0.046480 0.218330 9.754715 5.069492 6.300082 30.620481 -6.182126 -9.034715 149.851662 56.606598 107.803659 1.830724 -2.021838 -0.183530 0.143660 -0.241260 -0.357870 
-1.001640 17.160710 -5.007880 -4.242477 2.573988 -0.036688 -15.186954 13.128575 2.429828 -0.748894 -3.638134 -2.977221 2.142429 7.853317 47.198273 0.369061 8.675741 1.757457 0.717590 0.285100 0.725950 18.548721 -8.959755 4.651164 2.171961 10.056299 -47.291710 4.428257 -9.942096 48.273972 -0.959346 -6.769210 2.048216 0.205660 0.116130 0.262400 -3.984643 -3.284138 -8.005585 15.854723 -12.040415 24.647586 -7.104561 -9.059573 13.950451 2.603706 -5.879555 -10.713476 -12.094490 7.888412 28.502693 -9.465230 9.511680 -18.715350 -13.424181 -4.085229 4.492440 -16.778833 2.105485 -0.604429 171.122058 -44.567751 -175.472286 -3.757418 3.334247 0.679360 0.100190 0.052360 0.222980 8.778898 4.668527 7.202134 23.898513 -9.044252 -5.621022 168.575837 48.273072 132.384619 1.751594 -2.230626 -0.216680 0.196560 -0.234210 -0.367650 
-1.001030 16.933570 -4.974200 -3.981179 1.489246 0.418259 -15.189337 13.033590 2.279539 -0.905837 -2.591976 0.420983 2.278467 7.621056 44.134053 0.351040 8.270943 1.898187 0.732550 0.304810 0.703960 18.597052 -8.710999 4.974222 0.462747 11.265259 -49.889443 7.548675 -11.854790 50.732749 -1.160465 -7.529049 1.806734 0.183880 0.091200 0.287260 -4.045001 -3.294072 -8.070614 15.871544 -11.451416 22.422804 -6.955681 -8.928889 15.887047 2.366779 -6.060808 -11.504168 -13.071915 8.429782 30.910735 -8.735780 9.344550 -20.613650 -12.924658 -5.040202 4.678873 -8.270879 6.212180 -0.467098 165.194663 -40.242846 -157.091871 -3.754095 3.273262 0.706550 0.058230 0.092690 0.236300 8.763944 5.776374 8.534824 15.641243 -13.359601 -2.835168 178.056505 41.145643 149.922536 1.826579 -2.276524 -0.174610 0.178760 -0.233740 -0.345550 
-1.010590 16.787680 -4.943690 -3.963523 0.239595 0.495068 -15.193064 12.969420 2.201753 -0.877344 -1.514364 3.596422 2.253624 7.432291 40.566156 0.335966 7.782232 2.046128 0.750220 0.340290 0.710950 18.623345 -8.524690 5.231717 -1.026157 12.361238 -51.340415 10.605786 -13.608941 52.451672 -1.357174 -8.147756 1.619410 0.156920 0.009400 0.289160 -4.072569 -3.296943 -8.182535 15.476219 -10.475410 20.876491 -6.434513 -8.464855 17.015774 2.306706 -5.499783 -11.941953 -13.038879 8.815183 35.595466 -8.787990 9.581800 -23.044530 -13.399369 -6.347410 4.702700 -1.279738 9.632426 -0.180564 163.228696 -38.598666 -148.395836 -3.690916 3.254229 0.745490 -0.013690 0.160330 0.226120 9.316941 6.741025 9.298104 9.157644 -17.310180 -1.023474 -177.732161 36.368130 161.347257 1.946436 -2.237342 -0.122260 0.145530 -0.250900 -0.338780 
-1.011590 16.748280 -4.941820 -4.326310 -0.078206 0.009701 -15.182350 13.017618 2.201250 -0.564729 -0.834588 5.805470 2.674812 7.098526 38.008534 0.435168 7.392294 2.180889 0.699030 0.290720 0.672000 18.620097 -8.504311 5.310433 -1.609647 12.667355 -51.206831 12.218618 -14.451922 52.534622 -1.438615 -8.293124 1.613161 0.031130 -0.051240 0.312300 -4.077339 -3.328245 -8.270418 15.746068 -10.332444 21.476593 -6.191269 -8.360728 17.154475 2.592010 -5.068624 -13.004200 -13.145610 8.622018 39.414285 -9.371880 9.657120 -24.934340 -12.916773 -7.409034 5.581421 0.728136 12.567681 0.163390 164.582666 -37.762953 -150.634184 -3.638885 3.278062 0.762650 -0.081550 0.221730 0.210450 8.272299 7.649089 10.139434 8.525756 -19.578036 -1.265498 -177.829612 36.405889 160.832251 2.059108 -2.162916 -0.035620 0.080440 -0.247990 -0.303800 
-1.015440 16.816020 -4.970390 -4.836971 -1.143738 -0.860165 -15.204292 13.201772 2.282049 -0.037382 -0.105059 7.402313 2.361094 7.199333 35.267824 0.530561 7.099377 2.316543 0.572630 0.147690 0.591110 18.550982 -8.555879 5.241198 -1.204029 12.699330 -49.039563 13.300096 -14.232082 50.289888 -1.350775 -7.876182 1.796631 -0.120750 -0.045930 0.292760 -3.933080 -3.540771 -8.329059 15.339161 -10.250230 24.236629 -5.601588 -8.157392 16.832917 3.100737 -5.202366 -14.590548 -13.860357 8.959354 40.646294 -9.456480 10.062760 -24.201650 -11.912343 -7.926711 7.503929 -3.642949 15.158674 0.358827 169.089366 -37.536696 -165.329730 -3.654047 3.263408 0.768770 -0.115780 0.222590 0.186320 6.352681 8.767115 10.876986 12.692424 -18.204848 -2.877316 179.389162 38.356658 151.055716 2.114572 -2.073197 -0.016040 0.057010 -0.211530 -0.275550 
